<svg xmlns="http://www.w3.org/2000/svg" version="1.1" xmlns:xlink="http://www.w3.org/1999/xlink" xmlns:svgjs="http://svgjs.dev/svgjs" width="1000" height="1125" viewBox="0 0 1000 1125"><g transform="matrix(1,0,0,1,0,0)"><svg viewBox="0 0 320 360" data-background-color="#ffffff" preserveAspectRatio="xMidYMid meet" height="1125" width="1000" xmlns="http://www.w3.org/2000/svg" xmlns:xlink="http://www.w3.org/1999/xlink"><g id="tight-bounds" transform="matrix(1,0,0,1,0,0)"><svg viewBox="0 0 320 360" height="360" width="320"><g><svg></svg></g><g><svg viewBox="0 0 320 360" height="360" width="320"><g><path xmlns="http://www.w3.org/2000/svg" d="M165.217 303.356c-1.404-1.755-2.809-0.702-2.808-1.755-8.426 2.106-24.223-3.511-30.894-2.809 1.404-2.106-2.106-1.755-2.106-3.159-1.404 2.106-2.809 0-4.915 0.702-2.106-5.266-10.532-1.404-11.585-8.075-4.915 0-6.67-2.809-11.586-5.617 0.351-0.351 0.702-0.351 1.054-0.702-2.457-0.351-2.457-1.755-4.564-1.755l0.702-1.405c-3.862-0.702-5.266-6.67-10.883-8.776-1.755-0.351-5.617-6.319-7.723-7.724-1.053-0.702-2.809-0.702-0.352-1.053-0.351-0.351-0.351-1.053 0-1.404-2.457-0.702-2.809-2.809-5.968-3.862-0.351-1.053 0.702-1.755 0-2.457-0.702-0.351-1.755 0.351-2.457 0-0.351 6.319 6.67 7.021 8.777 12.287-0.702-0.702-1.755-2.809-2.458-1.404-0.351 1.053 2.809 4.915 2.809 2.808-1.053 0.702-1.404-1.053-0.703-1.404 1.053 1.755 3.16 1.404 3.16 2.809-1.053 1.053-2.457-1.053-2.106 0.702 3.16 1.755 2.809 3.511 4.563 5.968-1.404-1.755-1.755 1.404-3.159 0-0.351-5.266-6.319-4.213-6.319-9.479-0.702-1.755-1.404-0.351-2.458-1.053 1.404-1.404-4.213-6.319-4.213-4.564-1.755-2.106-0.702-2.809-1.053-4.213-1.404-0.351-0.351 1.404-1.404 0.351 1.404-2.457-1.755-5.617-3.862-8.074l1.405-0.702c-2.457-1.404-2.809-4.213-4.564-7.373-2.106 3.16 4.213 10.181 3.159 11.585 0 0.351 2.457 3.16 3.16 4.564 2.809 4.915 4.915 10.883 8.777 13.692-0.702-0.351-0.351-2.457 0.702-1.404 0 1.053-0.702 2.106-0.702 3.159 2.106 2.106 3.862 3.862 5.968 5.968-4.564-2.809-9.128-5.617-12.288-9.83 1.755-0.351 3.511 2.809 4.915 2.458-3.511-2.809-2.457-3.862-3.861-7.372-1.404-1.053 0.351 1.404-1.054 1.755-4.564-4.213-8.075-6.67-10.181-10.532 0.351-0.351 0.702-0.702 0.703-1.404-0.351-0.351-0.351-0.351-0.703-0.702 2.106 2.106 2.809 3.862 5.266 4.212-1.053-1.053 0-1.404-1.404-2.457-0.702-1.404-1.755 0.702-2.457-0.351 0.702-1.053 0-2.457 0-3.511-0.702 0-1.404 0-1.756-1.053-0.702-0.351-1.053 0-1.404 0.702-0.351-0.351-0.351-1.053-0.702-1.404v-0.351c-0.351-0.351-0.702-1.053-1.053-1.405-2.809-7.372-4.564-17.202-8.426-23.521 1.053-4.213-0.702-12.638-1.755-14.745 1.053-1.755 0.351-9.83-0.351-11.234-1.755 0.702 0.351 4.564-1.404 5.617-1.755-7.723 1.053-16.5 0.351-23.521 0.702 0 1.404 0 1.404-0.351-1.053-1.053 0.702-3.16 0.351-5.617 1.404-3.16-3.16 4.564-3.16 7.723-0.351 0.702-1.755 0-1.404 1.756 0 2.457 0.702 7.372-0.702 10.883-0.702 0-0.702-0.702-1.404-0.351-0.351 1.755-0.702 3.862-1.053 5.617-0.351-0.702-0.702-1.755-0.703-2.107-1.755-8.777 0-18.958-0.702-26.33 1.404 0 1.404-2.106 2.458-2.808-0.351 2.809-1.053 6.319 0.702 7.021 1.404-13.692 4.213-28.787 10.532-43.532 4.564-10.883 11.234-21.766 19.308-30.543 0.702 1.053-0.351 3.511 0 4.564 7.021-7.372 11.585-16.149 19.309-21.064 0.351 1.755-3.16 3.16-3.16 4.564 3.16-3.16 4.213-2.106 7.724-3.159 1.053-1.404-1.404 0-1.756-1.405 2.106-1.404 3.511-3.16 4.915-4.212 0 0.351-0.351 0.351-0.351 0.702 3.862-1.053 4.213-3.16 7.022-3.862-0.351-0.351-1.053-0.702-2.107-0.351 0.702-0.351 1.755-1.053 2.809-1.404-0.351 0-0.351 0.351-0.702 0.351 2.106-1.053 0.351 0.351 0.351 1.053 0.351 0 0.702-0.351 0.702-0.351-2.106 1.404-3.511 2.106-4.213 4.564 1.053-0.702 1.404 0 2.809-1.054 1.404-0.702-0.351-1.755 0.702-2.457 1.053 0.702 2.457 0.351 3.51 0.351 0-0.702 0.351-1.404 1.054-1.755 0.351-0.702 0-1.053-0.352-1.053 0.351-0.351 0.702-0.351 1.405-0.703 0 0 0.351 0 0.351 0.351 5.968-2.809 12.638-5.266 18.957-7.372 3.862-0.351 8.777-0.351 10.883-2.808-0.702 0-1.404 0.351-1.755 0 0.351 0 1.053-0.351 1.404-0.351 0.702 0.702 1.755 0 0.702 1.404 0.351 0 0.351 0 0.703-0.351 0 0.351 0 0.351 0.351 0.702 0.351 0 0.702-0.351 1.053-1.053 0.351 0 0.702 0 1.053-0.351l-0.351 0.351c2.809-0.702 5.266-0.351 9.128-1.054 0-0.351 0-0.702 0-1.053 0.702 0 1.053-0.351 1.755-0.351v0.351c1.404-0.702 2.809 0.702 2.808 0 0.351 0 0.351 0 0.703 0 0 0.702-0.351 1.053-0.351 1.405 1.755 0 2.809 0 3.51-1.054-0.351-0.351-0.702-0.351-1.053-0.351 0.702 0 1.404-0.351 2.106-0.702 1.053 0.351 1.404 0.702 1.405 2.107 1.755-3.16 7.372 0.702 9.829 0 1.053 0 0.702-1.404 1.405-2.107 0.351 0 0.702 0 1.053 0 1.755 1.404 4.213 2.809 7.372 3.16-2.809-0.702 0.351-1.053 0.702-1.405-0.702 0-0.702-0.351-0.702-0.702 1.053 0 2.106 0.351 3.16 0.351 0 0.702 0.351 1.053 1.053 1.054 0.702 0 0.702-0.351 0.702-1.054 1.053 0 1.755 0 2.809 0.351-0.351 1.404 1.755 1.755 2.457 2.809-2.809-0.702-5.968-1.755-7.021 0 11.234 2.457 23.521 5.968 35.457 11.936 0 0 0 0 0 0.351h0.352c2.106 1.053 4.213 2.106 6.319 3.16 1.404 0.702 2.457 1.404 3.861 2.457 0 0.351 0 0.702 0.703 0.702h0.351c1.404 1.053 2.809 1.755 4.212 2.809 1.404 2.106 2.809 4.915 5.266 4.213 5.266 8.075 10.883 11.234 15.447 19.659 0.351-1.404 1.404 3.16 3.16 3.511-2.809-0.351 1.755 1.755-1.053 1.404 2.457 2.457 3.16 3.511 3.51 6.319-0.702-1.404-1.053-1.755-1.404-0.351-0.351 2.106 2.457-0.351 3.511 1.756-2.106 0-1.404 1.404-1.054 3.159 1.053-1.053 0.702-2.106 1.756-1.755 1.404 1.404-0.702 1.755-0.351 2.809 1.053-1.404 1.404-0.702 2.808 0-1.755 0.351 1.053 2.809-1.053 1.755 1.404 1.755 1.755 2.809 1.053 4.564-1.404-2.106-0.351-3.511-2.457-3.16 4.213 3.511 2.106 11.585 7.021 12.287-3.16 0.702 0 2.106-1.755 2.458 2.106 0.702 1.053 3.511 3.51 4.213-0.351 1.755-1.053 2.809-1.404 4.563 1.053 1.404 1.404 4.213 3.16 4.564-1.053 1.053-0.351 3.862-1.404 4.915 1.404-0.702 2.106-0.702 3.159 0.702-1.755 1.404-0.351 2.809-1.404 3.16 3.16 8.075-0.702 24.575 1.053 30.894-2.106-1.053-1.404 2.457-2.808 2.457 2.457 1.053 0.351 2.809 1.404 4.564-4.915 2.809 0 10.532-6.67 12.287 0.702 4.915-2.106 7.021-4.213 12.288-0.351-0.351-0.351-0.702-0.702-1.054-0.351 2.457-1.755 2.809-1.054 4.915l-1.404-0.702c0 3.862-5.968 5.968-7.372 11.936-0.351 1.755-5.617 6.319-7.022 8.777-0.702 1.053-0.351 2.809-1.053 0.351-0.351 0.351-1.053 0.351-1.404 0.351-0.351 2.457-2.457 3.16-3.16 6.319-0.702 0.351-1.755-0.702-2.457 0.351 0 0.702 0.702 1.755 0.351 2.458 6.319-0.351 6.319-7.723 11.234-10.181-0.351 1.053-2.457 2.106-1.053 2.808 1.053 0 4.213-3.511 2.457-3.159 1.053 0.702-1.053 1.404-1.404 1.053 1.755-1.404 1.053-3.16 2.458-3.511 1.053 0.702-1.053 2.457 1.053 2.107 1.404-3.16 3.16-3.511 5.266-5.266-1.404 1.404 1.755 1.755 0.351 3.159-5.266 1.053-3.511 7.021-8.777 7.724-1.404 1.053-0.351 1.404-0.702 2.457-1.755-1.053-5.617 4.915-4.213 4.564-1.755 1.755-2.809 1.053-4.212 1.404-0.351 1.404 1.404 0.351 0.702 1.405-2.457-1.053-5.617 2.457-7.724 4.915l-1.053-1.054c-1.053 2.809-3.862 3.16-7.021 5.266 3.511 1.755 9.479-5.617 11.234-4.564 0.351 0 3.16-2.809 4.213-3.861 4.564-3.511 10.181-6.319 12.287-10.181-0.351 0.702-2.457 0.702-1.404-0.351 1.053-0.351 2.106 0.351 3.159 0.351 5.617-7.723 12.638-14.043 17.905-23.17 0.351-0.351 0.702-1.053 1.053-1.756-0.702 2.106-1.755 3.862-2.458 5.968-5.617 3.862-7.723 15.096-14.393 16.851 0.351 3.862-3.16 4.915-4.915 9.479-1.053 1.404-1.755-1.053-2.809 0.702 1.053 4.915-8.777 4.564-8.425 9.128-0.702 0.351-1.755 0.702-2.458 1.404h-0.351c-0.351 0.351-0.351 0.351-0.702 0.702-1.755 1.053-3.16 2.106-4.564 3.16-4.915 2.809-11.585 4.915-16.851 7.723v-0.351c-1.404 0.702-3.16 0.351-2.809 1.756-1.053 0.702-2.106 1.404-3.159 2.106-0.351 0-0.351 0-0.702 0 0 0-0.351-0.351-0.702-0.351-0.702 0-0.702 0-1.054 0.351-4.564 0.351-10.532 2.457-12.287 3.862-1.755-1.053-9.83 0.702-11.234 1.404 0.702 1.053 2.809 0 4.564 0-1.053 0.351-2.106 0.702-2.458 1.404-0.351 0-0.351 0-0.702 0-0.351-1.053-1.404 0-1.755-0.351h0.351c-0.351-1.404-1.404-2.106-3.16-1.755 0 0.702 0 1.053-0.351 1.755 0.702 0 2.809-1.053 2.809 0-0.351 0-0.351 0.351 0 0.351-0.702 0.702-1.755 0.702-2.458 1.054-1.404 0-3.16 0-4.563 0-0.351-0.351-0.702-0.351-1.405-0.703-0.351 0.351-1.053 0.351-1.404 0.703-2.106 0-4.564 0.351-6.319 0.702 0-0.702 0-1.404-0.702-1.405-1.053 1.404-3.16-0.351-5.617 0.352-2.457-0.702 1.404 1.053 4.915 1.755-0.351 0.351-0.702 0.702-1.756 1.053M116.068 308.271c-4.915-4.564-15.096-6.67-16.851-10.181-2.809-0.351-7.021-5.617-10.532-6.319 1.755 0 0.351-1.053 0-1.755-0.702 0.702-1.404 1.053-2.106 1.053 0-2.809-2.809-4.564-5.266-6.319 1.755 1.053 3.16 1.755 5.266 2.106 0-0.702 0-1.404 0.702-1.404 2.457 2.457 5.266 4.915 8.425 7.372 4.213 3.862 25.979 13.692 29.841 15.447 0 0-0.702 1.404-0.351 1.404 1.755 1.053 3.16-1.053 3.511 1.404-5.617 0.702-7.723-3.16-12.639-2.808M277.909 226.824v0.351 0c-0.351 0 0-0.351 0-0.351M136.079 64.281c-0.351 0.351-0.702 0.351-0.702 0.351 0-0.351 0.351-0.351 0.702-0.351M129.409 66.036c0 0.351 0 0.351 0 0 0 0.351 0 0.351 0 0 0 0.351 0 0 0 0M106.238 73.408v0c0.351-0.351 0.351-0.351 0.703-0.351-0.351 0-0.702 0.351-0.703 0.351M162.409 61.823c-0.702 0-1.053 0-1.404-0.351 0.351 0 0.702 0 1.053 0h0.351c0 0 0 0 0 0.351M168.728 62.525c-0.351-0.351-1.404-0.702-2.457-0.702 0-0.351 0.351-0.702 0.351-0.702 0.351 0 0.702 0 1.053 0 0 0 0.351 0 0.351 0.351 0 0 0 0 0-0.351 0.351 0 0.351 0 0.702 0 0.351 0.702 0.702 1.053 0 1.404M180.313 63.579c-1.755 0.351-2.809-0.351-4.564-1.405 1.053 0 2.457 0.351 3.511 0.702 0.351 0 0.702 0.351 1.053 0.703M305.292 113.43c-0.702 0.351-1.053 0.351-1.755-1.053-5.617-11.936-15.798-29.138-30.543-43.532-14.394-14.745-33.702-26.681-51.255-33.001 1.053 0.351 2.457 1.053 1.755 1.756-15.447-5.968-30.192-9.479-44.234-10.883-37.915-5.968-77.585 2.106-108.128 21.766 0.351 0.702 0.351 1.053-0.702 1.755-11.234 7.021-27.032 19.309-39.671 35.458-12.638 16.149-22.468 36.511-26.681 54.766 0.351-1.053 0.702-2.809 1.405-2.107-9.128 36.16-6.67 67.053 5.968 93.735 0.702-0.702-1.755-4.213 0.351-3.862 1.404 3.862 3.16 8.075 5.266 11.936 2.457 5.617 5.266 12.989 9.128 14.745-9.83-19.309-16.5-41.426-17.203-61.085 1.404 2.809 1.053 8.777 3.16 11.234 0.702-13.34-2.457-31.245 2.106-43.883-1.053 6.67-1.755 15.798-1.053 24.925 0 6.67 3.16 25.277 5.266 27.032-0.351-0.351-0.351-2.106 0-2.106 1.053 2.106-1.404 3.16 0.351 3.511 0-0.702 0.351-0.702 0.702-0.703 3.511 7.723 8.075 19.66 11.585 25.628 4.213 7.723 9.83 14.745 16.149 21.064 0 0.351 0.351 0.351 0.352 0.702 0.702 1.755 3.16 3.862 3.861 5.266 0.351 0.702-0.351 1.755 0 2.458 5.266 9.83 12.989 19.66 22.468 27.383 5.968 7.021 15.447 14.394 27.032 20.713 11.234 5.968 24.223 10.883 36.16 13.691 8.426 2.106 18.606 2.457 24.926 3.862 8.426 1.755 23.17-0.702 30.542-2.107 44.234-6.67 88.117-36.862 110.235-80.393 22.819-43.883 22.117-97.596 2.457-138.671" fill="#010c80" fill-rule="nonzero" stroke="none" stroke-width="1" stroke-linecap="butt" stroke-linejoin="miter" stroke-miterlimit="10" stroke-dasharray="" stroke-dashoffset="0" font-family="none" font-weight="none" font-size="none" text-anchor="none" style="mix-blend-mode: normal" data-fill-palette-color="tertiary"></path></g><g transform="matrix(1,0,0,1,80.00000000000001,150.96681639296742)"><svg viewBox="0 0 159.99999999999997 58.066367214065146" height="58.066367214065146" width="159.99999999999997"><g><svg viewBox="0 0 159.99999999999997 58.066367214065146" height="58.066367214065146" width="159.99999999999997"><g><svg viewBox="0 0 159.99999999999997 58.066367214065146" height="58.066367214065146" width="159.99999999999997"><g transform="matrix(1,0,0,1,0,27.785645890399035)"><svg viewBox="0 0 159.99999999999997 30.28072132366611" height="30.28072132366611" width="159.99999999999997"><g id="textblocktransform"><svg viewBox="0 0 159.99999999999997 30.28072132366611" height="30.28072132366611" width="159.99999999999997" id="textblock"><g><svg viewBox="0 0 159.99999999999997 30.28072132366611" height="30.28072132366611" width="159.99999999999997"><g transform="matrix(1,0,0,1,0,0)"><svg width="159.99999999999997" viewBox="1.7999999523162842 -36.349998474121094 268.9300231933594 50.89999771118164" height="30.28072132366611" data-palette-color="#010c80"><path d="M13.6 0.7L13.6 0.7Q6.45 0.7 3.7-2.4L3.7-2.4Q1.8-4.6 1.8-8.55L1.8-8.55Q1.8-10.25 2.15-12.2L2.15-12.2 4.2-23.7Q6.45-36.35 20.45-36.35L20.45-36.35Q26.25-36.35 29.25-33.88 32.25-31.4 32.25-27.1L32.25-27.1Q32.25-25.1 31.68-23.13 31.1-21.15 30.55-20.2L30.55-20.2 30-19.2 21.15-19.2Q22.8-21.1 22.8-24.6L22.8-24.6Q22.8-26.45 21.85-27.53 20.9-28.6 19.05-28.6L19.05-28.6Q14-28.6 13.05-23L13.05-23 11.3-12.9Q11.05-11.6 11.05-10.35L11.05-10.35Q11.05-7.05 15-7.05L15-7.05Q19.75-7.05 20.7-12.4L20.7-12.4 29.7-12.4 29.45-10.95Q27.45 0.7 13.6 0.7ZM57.7-18.95L57.7-18.95Q57.7-17.25 57.12-15.65 56.55-14.05 56-13.3L56-13.3 55.45-12.6 47.9-12.6Q49.15-13.75 49.15-15.45L49.15-15.45Q49.15-16.35 48.57-16.93 48-17.5 47-17.5L47-17.5Q45.3-17.5 44.05-15.8L44.05-15.8 41.25 0 32.75 0 37-24.05 44.9-24.05 44.3-20.7Q47.15-24.75 51.2-24.75L51.2-24.75Q54.45-24.75 56.07-23.2 57.7-21.65 57.7-18.95ZM71.05-24.05L68.7-10.75Q68.55-9.85 68.55-8.95L68.55-8.95Q68.55-6.55 71.25-6.55L71.25-6.55Q73.45-6.55 74.9-8.1L74.9-8.1 77.7-24.05 86.2-24.05 81.8 0.8Q80.7 7.15 76.77 10.85 72.85 14.55 67.8 14.55 62.75 14.55 60.52 12.7 58.3 10.85 58.3 7.85L58.3 7.85Q58.3 3.6 63.55 0.3L63.55 0.3Q60.7-0.4 59.95-2.55L59.95-2.55Q59.5-3.75 59.5-5.25 59.5-6.75 59.75-8.3L59.75-8.3 62.55-24.05 71.05-24.05ZM68.95 7.4L68.95 7.4Q72.2 7.4 73.2 1.5L73.2 1.5 73.7-1.4Q66.75 1.85 66.75 5.15L66.75 5.15Q66.75 6.15 67.32 6.78 67.9 7.4 68.95 7.4ZM104.99-24.7L104.99-24.7Q110.09-24.7 112.04-22L112.04-22Q113.44-20.15 113.44-17.3L113.44-17.3Q113.44-16.15 113.19-14.85L113.19-14.85 112.19-9Q111.34-4.25 108.54-1.78 105.74 0.7 101.54 0.7 97.34 0.7 95.69-1.55L95.69-1.55 92.99 13.9 84.49 13.9 91.19-24.05 98.89-24.05 98.64-22.7Q100.99-24.7 104.99-24.7ZM99.79-6.5L99.79-6.5Q101.19-6.5 102.39-7.4 103.59-8.3 103.89-10.1L103.89-10.1 104.54-13.85Q104.64-14.35 104.64-15.1 104.64-15.85 103.99-16.7 103.34-17.55 101.74-17.55L101.74-17.55Q99.14-17.55 98.34-16.3L98.34-16.3 96.84-7.9Q97.54-6.5 99.79-6.5ZM127.14 0.7L127.14 0.7Q121.34 0.7 118.79-1.9L118.79-1.9Q116.89-3.8 116.89-7L116.89-7Q116.89-8.05 117.09-9.25L117.09-9.25 120.49-28.6 129.64-32.4 128.19-24.05 141.99-24.05 140.74-17 126.94-17 125.94-11.35Q125.74-10.4 125.74-9.65L125.74-9.65Q125.74-6.5 128.74-6.5L128.74-6.5Q130.34-6.5 131.42-7.85 132.49-9.2 132.89-11.45L132.89-11.45 141.19-11.45Q139.09 0.7 127.14 0.7ZM158.84-24.75L158.84-24.75Q164.24-24.75 166.99-22.4L166.99-22.4Q169.14-20.55 169.14-17.25L169.14-17.25Q169.14-16.15 168.89-14.85L168.89-14.85 167.84-9Q166.89-3.7 163.41-1.5 159.94 0.7 154.14 0.7 148.34 0.7 145.64-1.5L145.64-1.5Q143.64-3.15 143.64-6.45L143.64-6.45Q143.64-7.6 143.89-9L143.89-9 144.94-14.85Q146.69-24.75 158.84-24.75ZM159.54-10.1L160.19-13.85Q160.29-14.35 160.29-15.13 160.29-15.9 159.64-16.85 158.99-17.8 157.36-17.8 155.74-17.8 154.64-16.73 153.54-15.65 153.24-13.85L153.24-13.85 152.59-10.1Q152.49-9.6 152.49-8.83 152.49-8.05 153.14-7.15 153.79-6.25 155.41-6.25 157.04-6.25 158.14-7.38 159.24-8.5 159.54-10.1L159.54-10.1ZM211.23 0L201.73 0 202.03-7.85 193.68-7.85 191.23 0 181.68 0 194.53-36 211.03-36 211.23 0ZM202.83-27.25L199.68-27.25 195.73-14.55 202.28-14.55 202.83-27.25ZM233.48-24.7L233.48-24.7Q238.58-24.7 240.53-22L240.53-22Q241.93-20.15 241.93-17.3L241.93-17.3Q241.93-16.15 241.68-14.85L241.68-14.85 240.68-9Q239.83-4.25 237.03-1.78 234.23 0.7 230.03 0.7 225.83 0.7 224.18-1.55L224.18-1.55 221.48 13.9 212.98 13.9 219.68-24.05 227.38-24.05 227.13-22.7Q229.48-24.7 233.48-24.7ZM228.28-6.5L228.28-6.5Q229.68-6.5 230.88-7.4 232.08-8.3 232.38-10.1L232.38-10.1 233.03-13.85Q233.13-14.35 233.13-15.1 233.13-15.85 232.48-16.7 231.83-17.55 230.23-17.55L230.23-17.55Q227.63-17.55 226.83-16.3L226.83-16.3 225.33-7.9Q226.03-6.5 228.28-6.5ZM262.28-24.7L262.28-24.7Q267.38-24.7 269.33-22L269.33-22Q270.73-20.15 270.73-17.3L270.73-17.3Q270.73-16.15 270.48-14.85L270.48-14.85 269.48-9Q268.63-4.25 265.83-1.78 263.03 0.7 258.83 0.7 254.63 0.7 252.98-1.55L252.98-1.55 250.28 13.9 241.78 13.9 248.48-24.05 256.18-24.05 255.93-22.7Q258.28-24.7 262.28-24.7ZM257.08-6.5L257.08-6.5Q258.48-6.5 259.68-7.4 260.88-8.3 261.18-10.1L261.18-10.1 261.83-13.85Q261.93-14.35 261.93-15.1 261.93-15.85 261.28-16.7 260.63-17.55 259.03-17.55L259.03-17.55Q256.43-17.55 255.63-16.3L255.63-16.3 254.13-7.9Q254.83-6.5 257.08-6.5Z" opacity="1" transform="matrix(1,0,0,1,0,0)" fill="#010c80" class="wordmark-text-0" data-fill-palette-color="primary" id="text-0"></path></svg></g></svg></g></svg></g></svg></g><g transform="matrix(1,0,0,1,42.91999999999999,0)"><svg viewBox="0 0 74.16 23.36696191196438" height="23.36696191196438" width="74.16"><g><svg xmlns="http://www.w3.org/2000/svg" xmlns:xlink="http://www.w3.org/1999/xlink" version="1.1" x="0" y="0" viewBox="10.825594902038574 38.09199905395508 80.66622924804688 25.41699981689453" enable-background="new 0 0 100 100" xml:space="preserve" height="23.36696191196438" width="74.16" class="icon-icon-0" data-fill-palette-color="accent" id="icon-0"><path d="M31.376 42.592c-7.333 0-11.834 2.75-11.834 4.625s1.584 3.625 9.667 3.625 24.5-10.25 41.25-10.25c17.083 0.002 17.083 8.583 17.083 8.583s-2.254-1.958-13.583-1.958c-16.917 0-32.667 9.125-43.874 9.125-11.209 0-14.108-5.008-14.108-8.925 0-3.375 4.399-9.325 15.232-9.325s12.667 6.583 12.667 6.583S38.709 42.592 31.376 42.592zM10.876 48.759c0 0-2.167 14.75 21.916 14.75 24.084 0 33.251-10.167 51.918-10.167 5.654 0.12 6.666 2.792 6.666 2.792s2.25-7.375-13.084-7.375c-15.332 0-33.308 9.917-47.832 9.917C15.935 58.676 10.876 48.759 10.876 48.759z" fill="#77d4fc" data-fill-palette-color="accent"></path></svg></g></svg></g><g></g></svg></g></svg></g></svg></g></svg></g><defs></defs></svg><rect width="320" height="360" fill="none" stroke="none" visibility="hidden"></rect></g></svg></g></svg>